<?xml version="1.0" encoding="UTF-8"?>
<svg id="Layer_1" xmlns="http://www.w3.org/2000/svg" version="1.1" viewBox="0 0 1200 600">
  <!-- Generator: Adobe Illustrator 29.1.0, SVG Export Plug-In . SVG Version: 2.1.0 Build 142)  -->
  <defs>
    <style>
      .st0 {
        fill: #3d89aa;
      }
    </style>
  </defs>
  <path class="st0" d="M335.53,530.63c-34.47-3.3-62.96-38.88-54.62-73.43,7.28-30.14,44.71-30.16,67.03-42.17,30.1-16.18,13.73-59.62-13.89-43.61-9.36,5.42-20.4,26.85-28.24,36.41-32.71,39.86-81.83,58.68-131.85,39.34l-6.13-3.05h22.27c6.4,0,21.13-7.89,26.18-12.26,20.82-18.06,29.17-62.37,25.68-88.56-11.19-83.91-118.68-106.45-137.13-181.76-8.81-35.95-.53-76.71,32.5-97.04,33.19-20.43,64.32-8.53,99.9-7.47l36.28-.91v83.89c-2.92.65-7.33,2.43-8.93-1.11-7.85-24.81-5.66-64.96-36.68-73.41-42.55-11.6-61,50.36-36.1,77.19,63.02,55.2,153.97,89.37,145.46,189.14-.89,10.49-4.25,20.57-5.23,31.03,16.24-7.75,30.68-17.86,49.31-19.25,46.16-3.45,78.27,27.84,80.82,73.01,1.87,33.04-4.88,108.66-47.7,113.05-16.81,1.73-25.46-2.85-28.31-19.54-.21-1.23.82-2.57-1.27-2.19-2.56,2.4-4.14,5.81-6.54,8.32-7.38,7.72-21.82,13.39-32.34,14.39-2.83.27-7.65.27-10.48,0ZM394.92,422.27c-17.4,12.56-54.64,25.52-37.04,53.23,5.89,9.27,19.22,14.78,29.66,9.73,2.28-1.1,7.38-5.94,7.38-8.34v-54.62Z"/>
  <path class="st0" d="M354.74,50v101.37c18.86-17.59,36.1-30.14,63.36-27.99,23.23,1.83,45.8,20.87,50.64,43.72,7.54,35.66-1.41,82.32,2.28,119.19,1.1,10.98,5.65,19.25,13.86,26.33,1.71,1.48,4.13,2.24,5.25,3.92h-102.19l6.56-6.11c8.99-10.89,6.04-24.19,6.5-37.19.83-23.16,4.56-72.41-4.31-92.62-7.41-16.89-35.74-27.12-43.5-5.02l.67,133.94c-1.26.21-1.22-1.54-1.47-2.44-1.93-6.93-2.6-14.78-4.36-21.86-6.64-26.76-19.98-47.12-40.44-65.28-4.85-4.3-19.77-13.82-22.02-18.17-.74-1.43-1.17-3.04-1.5-4.62l.59-117.23,3.97-3.89,65.24-26.04h.87Z"/>
  <path class="st0" d="M1185.38,370.71c.22,1.68.22,5.31,0,6.99-3.63,27.32-43.69,41.36-61.99,17.89-.95-1.22-6.91-12.85-8.75-10.9.02,2.22-.74,4.3-.91,6.52-2.85,37.12,2.19,77.87.05,115.37l4.85,12.63,9.12,7.92h-96.08l7-4.8c7.68-6.5,9.89-15.65,10.51-25.31,2.64-40.91-2.04-84.65-.05-125.86-.74-6.71-2.45-13.09-7.42-17.92-2.5-2.43-7.5-3.73-8.29-7h79.48v23.16l2.2,1.35c1.98-.03,6.01-8.28,7.83-10.53,10.34-12.75,28.67-20.41,44.45-12.99,8.81,4.14,16.71,13.64,18.01,23.49Z"/>
  <path class="st0" d="M795.39,528.01c-.82-.1-4.66-1.18-5.45-1.54-7.93-3.66-3.96-17.96-6.8-18.55-5.85,4.4-10.57,9.83-17,13.56-35.24,20.42-80.55,2.21-99.17-31.9-13.65-25-14.13-62.24-3.71-88.51,16.69-42.08,70.48-76.07,111.58-43.9-12.53,7.67-25.43,16.12-30.32,30.82-4.11,12.38-4.37,55.82-2.76,69.58,2.84,24.37,41.37,31.09,44.48,4.49-1.82-61.4,2.31-124.08,0-185.33-.14-3.71-1.23-8.35-1.67-12.13l64.95-28.47.45,245.99c1.65,16.86,2.87,35.83,20.08,44.15.23.34-1.16,1.73-1.31,1.73h-73.37Z"/>
  <path class="st0" d="M1005.45,151.37c9.26-7.42,17.7-16.43,28.54-21.69,36.66-17.78,80.95,2.73,84.12,44.86,2.38,31.6-1.85,66.04-.03,97.9.81,14.22,4.02,26.8,14.88,36.68l10.49,7.42h-106.56c7.08-6.06,10.95-13.95,12.22-23.16-1.91-31.42,2.59-65.92,0-96.98-1.02-12.24-7.43-23.66-18.07-29.99-14.15-8.42-28.67-1.23-29.99,15.09,2.44,35.66-2.22,75.87.92,111,.91,10.12,6.14,17.96,13.96,24.05h-99.57c10.38-6.88,16.5-16.64,17.5-29.24,3.62-45.74-2.77-96.22-.04-142.46-.78-7.77-5.3-13.44-10.47-18.8h82.1v25.34Z"/>
  <path class="st0" d="M732.06,124.39c-1.27,3.16-2.64,7.55-2.69,10.93-.15,10.37,10.74,38.04,14.91,48.94.8,2.08,1.53,5.36,3.5,6.54l8.63-24.91-14.73-41.51h65.51c-2.75,4.46-3.1,9.05-2.39,14.19,1.12,8.21,11.75,39.35,15.46,47.45.4.87.53,2.05,1.77,2.15,2.4-10.53,6.82-20.46,9.85-30.79,3.38-11.53,6.97-20.96,2.39-33h75.99l-44.56,156.42c-2.3.22-1.41.05-1.72-1.3-4.24-18.66-7.6-37.61-11.37-56.38l-69.59,27.87c-1.14.31-1.42-.56-1.87-1.38-2.04-3.73-2.84-10.32-5.18-14.01-.56-.88.06-1.54-1.95-1.11l-20.93,74.76c-1.53,3.79-2.28,5.28-6.54,5.69-5.53.54-20.99.71-26.2-.11-2.58-.4-4.3-1.93-5.34-4.27l-50.14-163.93-12.26-22.25h79.48Z"/>
  <path class="st0" d="M537.73,346.24c5.81,1.25,4.51,16.97,4.81,21.85,20.54-17.36,39.49-31.09,67.91-22.95,24.02,6.88,37.74,24.74,39.51,49.61,2.23,31.43-2.17,65.58-.03,97.03.76,11.11,4.12,20.28,11.79,28.41l9.21,6.95h-99.57l7.71-7.57,4.5-12.97c-2.23-30.77,3.02-65.85,0-96.11-1.09-10.96-8.33-21.53-18.3-26.26-12.75-6.04-27.21-.05-28.01,14.86,1.77,32.84-2.27,67.95.04,100.52.81,11.44,3.64,20.51,13.09,27.54h-93.46c1.64-2.21,5.12-3.72,6.98-5.69,5.58-5.89,8.19-15.59,8.78-23.55,3.03-41.18-2.32-86.04-.05-127.6-1.1-9.9-5.19-18.01-13.09-24.05h78.17Z"/>
  <path class="st0" d="M600.61,317.4c-10.13-1.68-10.66-14.67-11.8-22.72-5.88,4.71-10.38,10.91-16.67,15.21-40.8,27.91-99.6-12-95.02-59.24,4.89-50.39,88.47-36.33,89.61-78.12.26-9.46-7.26-25.72-18.83-22.33-10.36,3.04-33.98,33.22-42.5,42.24-4.81,5.09-13.32,15.71-19.65,7.42,2.44-1.99,5.41-2.08,7.88-4.33,18.34-16.62,31.55-41.12,52.44-56.77,48.9-36.63,117.03-5.82,116.13,56.76-.28,19.37-.42,38.19,0,57.6.43,19.82-4.82,45.72,11.74,59.92l5.7,4.35h-79.05ZM594.06,265.41v-58.11c-11.95,9.46-37.81,19.93-39.34,37.1-1.56,17.53,12.23,31.28,29.96,28.23,3.4-.58,8.74-3.62,9.38-7.22Z"/>
  <path class="st0" d="M941.25,426.64c-20.38,2.25-23.81,24.27-9.18,37.15,17.63,15.53,45.32,15.95,66.11,6.7,17.38-7.74,29.16-24.15,44.39-35.09,1.52,1.03,1.33,2.32,1.39,3.92.28,8.12-6.09,27.28-9.53,35.11-32.42,73.85-140.59,73.9-171.75-.62-19.72-47.15.45-99.74,46.39-121.31,62.29-29.25,122.07,8.71,134.82,72.76-.05.48-2.05,1.39-2.18,1.39h-100.44ZM941.46,363.06c-33.03,5.29-21.21,60.41,13.06,45.39,24.72-10.83,15.22-49.92-13.06-45.39Z"/>
  <path class="st0" d="M181.8,278.95c-2.92,2.66-7.14,3.38-10.74,5.42-26.41,14.97-10.88,48.3-16.37,72.75,2.97,47-3.84,98.64.06,145.09.56,6.73,3.07,15.2,7.86,20.1,1.77,1.82,4.72,2.81,6.1,4.82H58.65c1.42-1.8,3.82-2.64,5.7-4.35,4.77-4.35,7.68-8.87,9.29-15.18,3.73-66.14.53-133.01,1.65-199.42-.41-12.29-7.23-23.65-19.25-27.5-.25-.33,1.15-1.74,1.31-1.74h124.46Z"/>
</svg>