<?xml version="1.0" encoding="UTF-8"?>
<svg id="Layer_1" xmlns="http://www.w3.org/2000/svg" version="1.1" viewBox="0 0 1920 1080">
  <!-- Generator: Adobe Illustrator 29.1.0, SVG Export Plug-In . SVG Version: 2.1.0 Build 142)  -->
  <path d="M799.61,985.22c-.7,3.2-.63,3.34,1.92,4.9-.08-.54,0-1.09-.23-1.33-4.03-5.24,7.77-5.74,10.06-8.57,4.57-5.77,12.15-6.66,18.61-9.03,15.53-9.99,33.62-16.63,46.96-29.85,3.64-2.14,4.86-5.69,6.48-9.17,1.79-4.84,6.81-8.24,6.82-13.66.61-6.67-.56-14.07,1.51-20.4,5.17-6.92,4.08-16.39,7.68-23.85,4.14-7.72,2.91-16.06,3.82-24.15,3.47-31.42,5.8-63.01,3.56-94.6-14.45,49.19-49.56,90.43-87.1,124.22-8.92,7.44-37.83,35.82-46.31,19-.07-1.65.23-2.84,1.81-3.75,13.85-7.94,26.77-17.21,38.88-27.61,25.98-22.02,46.95-48.87,64.54-77.93-12.2,1.89-24.59,4.65-34.47-4.44-2.87-1.35-6.66-6.95-1.32-7.7,10.21-3.1,17,10.67,27.67,7.72,14.3-6.08,23.04-20.16,22.45-35.57.34-25.75.66-51.51.9-77.26-2.36-7.92-9.14-17.05-17.9-18.44-38.72-6.57-81.5-23.48-102.81-57.94-1.46-6.7,8.98-4.43,7.9-11.76,1.09-21.17,2.27-42.34,1.77-63.54,2.53-35.52-18.18-28.34-28.56-67.74-4.77-27.55.58-56.16,1.63-83.98-.72-6.26,1.62-13.32-1.05-19.09-3.64-6.11,2.91-12.32,4.12-18.39,6.33-25.43-9.42-63.79,19.66-78.52,2.74-1.44,3.46-5.23,7.07-5.3,3.21-.36,6.35-.88,7.35-4.83,1.81-1.41,4.94-2.6,7.08-3.89,10.31-3.97,15.11-18.01,27.84-15.92,1.75-.03,3.02-.31,3.34-2.46,2.21-3.46,7.2-4.66,8.23-9.33,1.53-5.13,5.48-8.24,9.38-11.57,4.07-6.16,8.05-12.38,12.18-18.5,2.38-5.55,10.53-10.01,9.06-16.36-5.03-15.79-15.6-30.94-11.46-48.23,1.06-5.45,4.06-11.07,2.9-16.64-1.63-4.58.66-7.82,3.27-11.03,7.07-2.33,7.66-11.39,14.59-14.67,13.73-15.63,33.96-26.43,55.41-20.96,13.04,1.64,21.97,10.93,33.4,15.79,15.94,5.91,29.16,8.24,28.96,28.45-.15,3.56-4.44,7.15-3.52,11.07,2.47,7.57.21,21.15,9.5,23.93,17.22,4.29,2.4,22.92-3.38,31.41-.23-.13-.45-.27-.68-.4,2.04-5.97,6.76-11.5,7.28-17.72-5.73.89-15.81,15.9-8.19,19.45-4.13,5.95,10.41,17.48-1.55,20.42-3.36.45-4.84,2-5.28,5.28-1.18,3.85-6.11,9.17.78,10.51,22.78,9.1,49.48,14.15,65.64,34.06,5.86,3.96,6.97,10.41,8.55,16.63,3.8,10.04,8.55,19.68,14.37,28.77,7.46,17.4,4.47,33.3,21.55,46.53,1.85,7.76,1.78,16.39,1.94,24.4,1.05,11.39,5.46,21.68,6.2,33.12,2.09,9.37,6.66,18.32,5.92,28.1.08,1.41,0,3.03.67,4.17,2.03,2.79.82,5.98,1.58,8.94,2.6,6.71,3.55,27.47-2.36,32.18-8.75,4.29-13.32,13.35-20.03,20.06-10.92,15.71-44.07,20.47-40.01,29.49-.63,11.24,9.89,19.37,8.45,31.07-.01,2.26-.76,4.16-2.44,5.63-5.41,6.11-3.24,15.96-2.33,23.51,1.68,3.66-1.44,10.97,3.99,11.78,67.07,7.21,34.09,46.67-8.81,60.19-3.45,1.27-3.76,1.23-3,4.78,1.82,8.53,2.58,17.27,5.63,25.59,5.3,19.66,5.17,42.57,15.92,59.91,9.5,20.21,13.04,42.13,16.43,63.91,1.93,2.72,3.3,5.07,3.1,8.59,4.58,20.14,26.9,30.03,31.95,50.73,7.06,13.32,16.89,25.77,28.17,35.85,6.9,2.69,10.9,8.26,13.75,14.97,2.85,5.6-3.97,9.15-7.33,12.53-19.12,15.19-40.76,27.3-63.49,35.85-3.21.33-5.04-4.3-6.37-6.7-3.84-8.95-11.35-15.38-15.56-24.17-6.37-13.06-7.15-28.55-7.41-42.81-.32-5.54-11.2-28.26-16.9-29.99-22.22-5.61-43.82-12.92-64.41-23.13-8.21,24.72-13.4,50.64-15.97,76.56,1.2,15.45,1.96,31.69-17.45,34.16-11.21,3.46-.31,14.93-3,22.5-3.77,12.74-5.68,27.83-17.11,36.36-32.71,25.27-79.91,45.05-119.54,24.23-14.76-6.39-33.04-21.81-12.89-34.4ZM1048.4,838.72c3.6-9.14-6.17-14.52-7.25-23.14-2.44-3.87-5.76-12.18-11.36-10.62-6.3,2.1-16.54,5.02-17.84-4.38-.5-11.95-7.77-22.44-13.79-32.41-.24.06-.47.13-.71.19-3.22,15.3-6.17,30.66-10.32,45.76-.42,1.67,0,2.52,1.61,3.32,18.92,9.49,39.07,16.53,59.66,21.27ZM998.79,146.51c.28.22.57.44.85.66,2.07-2.75,12.38-6.58,7.47-10.16-8.47-5.93-6.9,3.87-8.32,9.5ZM827.96,978.52c-4.3-6.2-17.05,3.43-20.95,7.36-.32.43-.59,1.43-.4,1.59,3.28,2.68,6.78-2,7.7-5.03.16-.52,1.35-1.25,1.66-1.09,4.15,1.3,7.8-2.24,12-2.84ZM908.28,686.03v27.84c1.42-3.4,1.67-25.82,0-27.84ZM1009.64,569.17c.15-.06.31-.11.46-.17-1.42-2.55.6-11.4-4.2-8.08,1.24,2.75,2.49,5.5,3.73,8.25Z"/>
</svg>