<?xml version="1.0" encoding="UTF-8" standalone="no"?>
<svg
   xmlns="http://www.w3.org/2000/svg"
   viewBox="0 0 1920 1080"
   height="1080"
   width="1920"
>
  <path
    d="M335.574,305.879 c-4.965,-22.719 -4.492,-23.688 13.617,-34.719 -0.586,3.809 0.02,7.75 -1.648,9.461 -28.602,37.149 55.125,40.738 71.336,60.77 32.387,40.929 86.129,47.25 132,64.011 110.141,70.828 238.414,117.957 333,211.688 25.781,15.152 34.469,40.359 45.973,65.012 12.683,34.328 48.265,58.437 48.378,96.89 4.329,47.309 -3.972,99.758 10.676,144.668 36.674,49.082 28.924,116.22 54.464,169.13 29.35,54.74 20.66,113.92 27.12,171.29 24.62,222.82 41.11,446.85 25.25,670.83"
    style="fill:#000000;fill-opacity:1;fill-rule:nonzero;stroke:none"
  />
</svg>