<?xml version="1.0" encoding="UTF-8" standalone="no"?>
<svg
   xmlns:dc="http://purl.org/dc/elements/1.1/"
   xmlns:cc="http://creativecommons.org/ns#"
   xmlns:rdf="http://www.w3.org/1999/02/22-rdf-syntax-ns#"
   xmlns:svg="http://www.w3.org/2000/svg"
   xmlns="http://www.w3.org/2000/svg"
   viewBox="0 0 392.79999 923.50665"
   height="923.50665"
   width="392.79999"
   xml:space="preserve"
   id="svg2"
   version="1.1"><metadata
     id="metadata8"><rdf:RDF><cc:Work
         rdf:about=""><dc:format>image/svg+xml</dc:format><dc:type
           rdf:resource="http://purl.org/dc/dcmitype/StillImage" /></cc:Work></rdf:RDF></metadata><defs
     id="defs6" /><g
     transform="matrix(1.3333333,0,0,-1.3333333,0,923.50667)"
     id="g10"><g
       transform="scale(0.1)"
       id="g12"><path
         id="path14"
         style="fill:#100f0d;fill-opacity:1;fill-rule:nonzero;stroke:none"
         d="m 1825.07,3256.27 c 1.09,0.39 2.18,0.79 3.28,1.18 -10.1,18.05 4.28,80.83 -29.76,57.32 8.82,-19.5 17.65,-39 26.48,-58.5 z M 1106.23,2427.6 c 0,-67.48 0,-131.53 0,-197.4 10.06,24.11 11.81,183.13 0,197.4 z M 536.652,353.41 c -30.496,43.949 -120.914,-24.308 -148.566,-52.23 -2.258,-3.02 -4.211,-10.117 -2.863,-11.258 23.269,-19.031 48.086,14.16 54.601,35.648 1.164,3.66 9.598,8.84 11.766,7.719 29.422,-9.219 55.316,15.871 85.062,20.121 z M 1748.09,6253.62 c 2.01,-1.56 4.03,-3.12 6.04,-4.69 14.68,19.5 87.77,46.64 52.98,72.04 -60.1,42.05 -48.92,-27.47 -59.02,-67.35 z m 351.83,-4908.85 c 25.53,64.82 -43.77,102.96 -51.43,164.13 -17.33,27.43 -40.85,86.35 -80.56,75.32 -44.65,-14.87 -117.28,-35.62 -126.52,31.04 -3.54,84.71 -55.09,159.15 -97.76,229.81 -1.68,-0.46 -3.36,-0.92 -5.04,-1.37 -22.86,-108.51 -43.73,-217.44 -73.17,-324.52 -2.97,-11.82 0.02,-17.85 11.42,-23.54 134.2,-67.28 277.09,-117.22 423.06,-150.87 z M 335.574,305.879 c -4.965,-22.719 -4.492,-23.688 13.617,-34.719 -0.586,3.809 0.02,7.75 -1.648,9.461 -28.602,37.149 55.125,40.738 71.336,60.77 32.387,40.929 86.129,47.25 132,64.011 110.141,70.828 238.414,117.957 333,211.688 25.781,15.152 34.469,40.359 45.973,65.012 12.683,34.328 48.265,58.437 48.378,96.89 4.329,47.309 -3.972,99.758 10.676,144.668 36.674,49.082 28.924,116.22 54.464,169.13 29.35,54.74 20.66,113.92 27.12,171.29 24.62,222.82 41.11,446.85 25.25,670.83 C 993.273,1586.1 744.254,1293.59 478.047,1054.02 414.773,1001.24 209.777,800.012 149.617,919.27 c -0.469,11.722 1.653,20.171 12.852,26.589 98.234,56.291 189.875,122.011 275.707,195.781 184.238,156.18 332.969,346.58 457.695,552.65 -86.527,-13.39 -174.355,-32.97 -244.476,31.46 -20.348,9.59 -47.196,49.28 -9.368,54.63 72.411,21.95 120.543,-75.69 196.219,-54.72 101.422,43.14 163.384,142.99 159.215,252.26 2.434,182.63 4.709,365.26 6.369,547.9 -16.705,56.19 -64.807,120.92 -126.955,130.74 -274.613,46.62 -577.992,166.5 -729.078,410.89 -10.383,47.52 63.711,31.39 56.023,83.42 7.707,150.14 16.067,300.23 12.567,450.63 17.922,251.9 -128.9339,200.99 -202.5511,480.37 -33.832,195.4 4.0821,398.23 11.5821,595.53 -5.0899,44.42 11.5039,94.45 -7.418,135.35 -25.82031,43.32 20.6563,87.39 29.2188,130.43 44.8906,180.36 -66.7969,452.38 139.4262,556.84 19.46,10.21 24.531,37.1 50.171,37.61 22.743,2.59 45.043,6.26 52.098,34.27 12.805,10 35.035,18.4 50.188,27.56 73.105,28.15 107.148,127.73 197.433,112.9 12.434,0.19 21.434,2.17 23.711,17.41 15.656,24.54 51.094,33.02 58.383,66.17 10.824,36.36 38.863,58.44 66.539,82.07 28.891,43.67 57.055,87.83 86.375,131.2 16.895,39.4 74.668,70.99 64.215,116.04 -35.645,112 -110.645,219.43 -81.297,342.05 7.504,38.66 28.793,78.5 20.578,117.97 -11.566,32.48 4.676,55.47 23.164,78.19 50.129,16.54 54.297,80.8 103.453,104.03 97.356,110.83 240.854,187.44 392.944,148.61 92.5,-11.65 155.8,-77.48 236.88,-111.95 113.06,-41.94 206.8,-58.41 205.37,-201.77 -1.04,-25.22 -31.46,-50.71 -24.93,-78.52 17.49,-53.66 1.5,-149.95 67.38,-169.71 122.15,-30.43 17.02,-162.54 -23.98,-222.73 -1.6,0.95 -3.21,1.9 -4.81,2.84 14.48,42.35 47.96,81.56 51.64,125.64 -40.65,-6.35 -112.13,-112.77 -58.06,-137.91 -29.29,-42.2 73.84,-123.94 -11,-144.79 -23.82,-3.16 -34.3,-14.16 -37.43,-37.45 -8.35,-27.31 -43.32,-64.99 5.53,-74.52 161.55,-64.53 350.89,-100.37 465.51,-241.56 41.59,-28.08 49.46,-73.8 60.66,-117.97 26.93,-71.21 60.64,-139.52 101.93,-204.02 52.93,-123.42 31.67,-236.13 152.85,-329.94 13.09,-55.02 12.6,-116.26 13.73,-173.01 7.44,-80.79 38.72,-153.76 44.01,-234.84 14.84,-66.48 47.22,-129.9 41.95,-199.3 0.55,-10 0.07,-21.48 4.77,-29.54 14.37,-19.8 5.85,-42.41 11.22,-63.42 18.42,-47.61 25.19,-194.83 -16.77,-228.23 -62.07,-30.44 -94.43,-94.67 -142.06,-142.27 -77.42,-111.44 -312.52,-145.17 -283.73,-209.11 -4.44,-79.7 70.12,-137.38 59.94,-220.35 -0.08,-16 -5.38,-29.48 -17.28,-39.91 -38.38,-43.37 -23,-113.22 -16.5,-166.71 11.95,-25.93 -10.22,-77.81 28.32,-83.53 475.62,-51.16 241.75,-330.95 -62.5,-426.83 -24.46,-9.03 -26.63,-8.75 -21.27,-33.93 12.88,-60.52 18.29,-122.49 39.9,-181.45 37.55,-139.42 36.63,-301.9 112.88,-424.87 67.37,-143.29 92.48,-298.78 116.53,-453.2 13.66,-19.29 23.41,-35.93 22.01,-60.93 32.45,-142.82 190.75,-212.97 226.58,-359.78 50.06,-94.48 119.77,-182.76 199.8,-254.217 48.95,-19.114 77.3,-58.551 97.52,-106.153 20.24,-39.73 -28.12,-64.89 -51.95,-88.859 C 2753.67,683.59 2600.17,597.68 2438.97,537.059 c -22.73,-2.348 -35.71,30.472 -45.15,47.492 -27.25,63.5 -80.5,109.058 -110.33,171.441 -45.15,92.598 -50.7,202.481 -52.57,303.568 -2.24,39.27 -79.44,200.4 -119.85,212.68 -157.6,39.81 -310.72,91.62 -456.73,164.04 -58.24,-175.3 -95.01,-359.14 -113.27,-542.889 8.52,-109.571 13.92,-224.719 -123.73,-242.282 -79.51,-24.558 -2.2,-105.839 -21.3,-159.55 -26.7,-90.36 -40.31,-197.368 -121.32,-257.829 C 1042.77,54.5117 708.035,-85.7578 426.973,61.9023 322.324,107.242 192.703,216.551 335.574,305.879" /></g></g></svg>